<svg data-logo="logo" xmlns="http://www.w3.org/2000/svg" viewBox="0 0 297 44">
        <g style="opacity: 1;" id="logogram" transform="translate(0, 1.5) rotate(0)"><path d="M0 24.9721C0 22.9632 0.395671 20.9739 1.16447 19.118C1.93328 17.2619 3.06009 15.5755 4.48064 14.155C5.90118 12.7344 7.58755 11.6076 9.44355 10.8388C11.2996 10.0701 13.2889 9.67435 15.2979 9.67435V24.9721H0Z" fill="#1565C0"></path><path d="M0 24.9721C0 26.9811 0.395671 28.9704 1.16447 30.8264C1.93328 32.6824 3.06009 34.3688 4.48064 35.7894C5.90118 37.2099 7.58755 38.3368 9.44355 39.1056C11.2996 39.8744 13.2889 40.27 15.2979 40.27V24.9721H0Z" fill="#42A5F5"></path><path d="M30.5955 24.9721C30.5955 26.9811 30.2001 28.9704 29.4314 30.8264C28.6626 32.6824 27.5358 34.3688 26.115 35.7894C24.6945 37.2099 23.0081 38.3368 21.152 39.1056C19.2961 39.8744 17.3067 40.27 15.2979 40.27V24.9721H30.5955Z" fill="#90CAF9"></path><path d="M40.0277 11.7562C40.0277 18.0999 34.885 23.2424 28.5414 23.2424H17.0553V11.7562C17.0553 5.41257 22.1979 0.269989 28.5414 0.269989C34.885 0.269989 40.0277 5.41257 40.0277 11.7562Z" fill="#FF7917"></path></g>
        <g style="opacity: 1;" id="logotype" transform="translate(47, 1)"><path fill="#222222" d="M19.06 34L8.31 34L8.31 8.54L18.41 8.54Q21.21 8.54 23.08 9.38Q24.95 10.23 25.88 11.70Q26.82 13.17 26.82 15.08L26.82 15.08Q26.82 16.59 26.22 17.70Q25.62 18.82 24.59 19.53Q23.55 20.24 22.24 20.55L22.24 20.55L22.24 20.81Q23.67 20.86 24.94 21.62Q26.22 22.38 27.01 23.74Q27.81 25.10 27.81 26.99L27.81 26.99Q27.81 28.99 26.82 30.58Q25.82 32.17 23.88 33.09Q21.94 34 19.06 34L19.06 34ZM13.52 22.81L13.52 29.71L18.03 29.71Q20.32 29.71 21.38 28.82Q22.44 27.93 22.44 26.50L22.44 26.50Q22.44 25.40 21.92 24.57Q21.40 23.75 20.44 23.28Q19.48 22.81 18.17 22.81L18.17 22.81L13.52 22.81ZM13.52 12.79L13.52 19.23L17.64 19.23Q18.75 19.23 19.64 18.83Q20.53 18.43 21.03 17.69Q21.53 16.94 21.53 15.92L21.53 15.92Q21.53 14.53 20.55 13.66Q19.57 12.79 17.74 12.79L17.74 12.79L13.52 12.79ZM35.65 34.24L35.65 34.24Q33.67 34.24 32.18 33.38Q30.69 32.51 29.88 30.90Q29.07 29.28 29.07 27.04L29.07 27.04L29.07 14.89L34.20 14.89L34.20 26.16Q34.20 27.93 35.12 28.94Q36.04 29.95 37.65 29.95L37.65 29.95Q38.74 29.95 39.58 29.48Q40.42 29.01 40.89 28.11Q41.36 27.22 41.36 25.95L41.36 25.95L41.36 14.89L46.48 14.89L46.48 34L41.65 34L41.58 29.23L41.87 29.23Q41.12 31.64 39.57 32.94Q38.02 34.24 35.65 34.24ZM55.57 34.32L55.57 34.32Q53.37 34.32 51.60 33.19Q49.83 32.05 48.81 29.86Q47.78 27.66 47.78 24.48L47.78 24.48Q47.78 21.22 48.84 19.03Q49.90 16.84 51.66 15.75Q53.42 14.65 55.54 14.65L55.54 14.65Q57.16 14.65 58.24 15.20Q59.32 15.75 59.98 16.55Q60.65 17.35 60.97 18.11L60.97 18.11L61.14 18.11L61.14 8.54L66.27 8.54L66.27 34L61.23 34L61.23 30.94L60.97 30.94Q60.63 31.71 59.96 32.49Q59.28 33.27 58.21 33.79Q57.13 34.32 55.57 34.32ZM57.15 30.21L57.15 30.21Q58.44 30.21 59.37 29.49Q60.29 28.77 60.77 27.48Q61.25 26.19 61.25 24.46L61.25 24.46Q61.25 22.72 60.78 21.45Q60.31 20.17 59.38 19.47Q58.46 18.76 57.15 18.76L57.15 18.76Q55.80 18.76 54.88 19.49Q53.97 20.23 53.51 21.51Q53.04 22.79 53.04 24.46L53.04 24.46Q53.04 26.14 53.51 27.44Q53.98 28.74 54.90 29.47Q55.81 30.21 57.15 30.21ZM76.85 41.55L76.85 41.55Q74.47 41.55 72.70 40.95Q70.92 40.34 69.81 39.28Q68.70 38.22 68.27 36.87L68.27 36.87L72.68 35.64Q72.92 36.17 73.42 36.67Q73.93 37.18 74.76 37.50Q75.60 37.83 76.83 37.83L76.83 37.83Q78.80 37.83 79.92 36.93Q81.04 36.03 81.04 34.14L81.04 34.14L81.04 30.62L80.64 30.62Q80.30 31.39 79.65 32.10Q79.00 32.82 77.95 33.27Q76.90 33.73 75.34 33.73L75.34 33.73Q73.19 33.73 71.43 32.72Q69.67 31.71 68.62 29.64Q67.57 27.57 67.57 24.41L67.57 24.41Q67.57 21.18 68.64 19.01Q69.70 16.84 71.47 15.75Q73.24 14.65 75.36 14.65L75.36 14.65Q76.97 14.65 78.06 15.19Q79.16 15.73 79.83 16.54Q80.51 17.35 80.85 18.11L80.85 18.11L81.07 18.11L81.07 14.89L86.11 14.89L86.11 33.85Q86.11 36.43 84.92 38.14Q83.74 39.86 81.65 40.71Q79.57 41.55 76.85 41.55ZM76.95 29.83L76.95 29.83Q78.27 29.83 79.18 29.18Q80.10 28.53 80.57 27.31Q81.05 26.09 81.05 24.38L81.05 24.38Q81.05 22.69 80.57 21.42Q80.10 20.16 79.18 19.46Q78.27 18.76 76.95 18.76L76.95 18.76Q75.60 18.76 74.69 19.48Q73.77 20.21 73.30 21.47Q72.83 22.74 72.83 24.38L72.83 24.38Q72.83 26.05 73.30 27.28Q73.77 28.50 74.70 29.16Q75.62 29.83 76.95 29.83ZM96.84 34.38L96.84 34.38Q93.92 34.38 91.80 33.18Q89.68 31.98 88.54 29.78Q87.41 27.57 87.41 24.55L87.41 24.55Q87.41 21.59 88.54 19.37Q89.66 17.15 91.73 15.90Q93.80 14.65 96.59 14.65L96.59 14.65Q98.46 14.65 100.09 15.25Q101.71 15.85 102.94 17.06Q104.17 18.26 104.87 20.07Q105.56 21.88 105.56 24.34L105.56 24.34L105.56 25.78L89.51 25.78L89.51 22.57L103.05 22.57L100.65 23.42Q100.65 21.93 100.20 20.83Q99.75 19.73 98.85 19.12Q97.95 18.52 96.62 18.52L96.62 18.52Q95.30 18.52 94.37 19.13Q93.44 19.75 92.96 20.80Q92.48 21.85 92.48 23.20L92.48 23.20L92.48 25.47Q92.48 27.13 93.04 28.26Q93.59 29.39 94.59 29.95Q95.59 30.51 96.93 30.51L96.93 30.51Q97.83 30.51 98.57 30.26Q99.30 30.00 99.82 29.50Q100.34 28.99 100.62 28.26L100.62 28.26L105.27 29.13Q104.81 30.70 103.66 31.89Q102.52 33.08 100.80 33.73Q99.08 34.38 96.84 34.38ZM104.94 14.89L116.27 14.89L116.27 18.81L104.94 18.81L104.94 14.89ZM107.57 28.86L107.57 10.35L112.70 10.35L112.70 28.41Q112.70 29.32 113.10 29.75Q113.50 30.19 114.44 30.19L114.44 30.19Q114.73 30.19 115.26 30.11Q115.79 30.04 116.07 29.97L116.07 29.97L116.80 33.81Q115.95 34.07 115.10 34.17Q114.25 34.27 113.48 34.27L113.48 34.27Q110.61 34.27 109.09 32.87Q107.57 31.47 107.57 28.86L107.57 28.86ZM128.20 34L117.45 34L117.45 8.54L127.55 8.54Q130.35 8.54 132.22 9.38Q134.09 10.23 135.02 11.70Q135.96 13.17 135.96 15.08L135.96 15.08Q135.96 16.59 135.36 17.70Q134.76 18.82 133.73 19.53Q132.69 20.24 131.38 20.55L131.38 20.55L131.38 20.81Q132.81 20.86 134.08 21.62Q135.36 22.38 136.15 23.74Q136.95 25.10 136.95 26.99L136.95 26.99Q136.95 28.99 135.96 30.58Q134.96 32.17 133.03 33.09Q131.09 34 128.20 34L128.20 34ZM122.66 22.81L122.66 29.71L127.17 29.71Q129.46 29.71 130.52 28.82Q131.58 27.93 131.58 26.50L131.58 26.50Q131.58 25.40 131.06 24.57Q130.54 23.75 129.58 23.28Q128.62 22.81 127.31 22.81L127.31 22.81L122.66 22.81ZM122.66 12.79L122.66 19.23L126.78 19.23Q127.89 19.23 128.78 18.83Q129.67 18.43 130.17 17.69Q130.68 16.94 130.68 15.92L130.68 15.92Q130.68 14.53 129.69 13.66Q128.71 12.79 126.88 12.79L126.88 12.79L122.66 12.79ZM144.79 34.24L144.79 34.24Q142.81 34.24 141.32 33.38Q139.83 32.51 139.02 30.90Q138.21 29.28 138.21 27.04L138.21 27.04L138.21 14.89L143.34 14.89L143.34 26.16Q143.34 27.93 144.26 28.94Q145.18 29.95 146.79 29.95L146.79 29.95Q147.88 29.95 148.72 29.48Q149.56 29.01 150.03 28.11Q150.50 27.22 150.50 25.95L150.50 25.95L150.50 14.89L155.62 14.89L155.62 34L150.79 34L150.72 29.23L151.01 29.23Q150.26 31.64 148.71 32.94Q147.16 34.24 144.79 34.24ZM164.71 34.32L164.71 34.32Q162.51 34.32 160.74 33.19Q158.97 32.05 157.95 29.86Q156.92 27.66 156.92 24.48L156.92 24.48Q156.92 21.22 157.98 19.03Q159.04 16.84 160.80 15.75Q162.56 14.65 164.68 14.65L164.68 14.65Q166.30 14.65 167.38 15.20Q168.46 15.75 169.12 16.55Q169.79 17.35 170.11 18.11L170.11 18.11L170.29 18.11L170.29 8.54L175.41 8.54L175.41 34L170.37 34L170.37 30.94L170.11 30.94Q169.77 31.71 169.10 32.49Q168.42 33.27 167.35 33.79Q166.27 34.32 164.71 34.32ZM166.29 30.21L166.29 30.21Q167.59 30.21 168.51 29.49Q169.43 28.77 169.91 27.48Q170.39 26.19 170.39 24.46L170.39 24.46Q170.39 22.72 169.92 21.45Q169.45 20.17 168.53 19.47Q167.60 18.76 166.29 18.76L166.29 18.76Q164.94 18.76 164.02 19.49Q163.11 20.23 162.65 21.51Q162.18 22.79 162.18 24.46L162.18 24.46Q162.18 26.14 162.65 27.44Q163.12 28.74 164.04 29.47Q164.95 30.21 166.29 30.21ZM184.50 34.32L184.50 34.32Q182.30 34.32 180.53 33.19Q178.76 32.05 177.73 29.86Q176.71 27.66 176.71 24.48L176.71 24.48Q176.71 21.22 177.77 19.03Q178.83 16.84 180.59 15.75Q182.35 14.65 184.47 14.65L184.47 14.65Q186.09 14.65 187.17 15.20Q188.24 15.75 188.91 16.55Q189.58 17.35 189.90 18.11L189.90 18.11L190.07 18.11L190.07 8.54L195.20 8.54L195.20 34L190.16 34L190.16 30.94L189.90 30.94Q189.56 31.71 188.89 32.49Q188.21 33.27 187.13 33.79Q186.06 34.32 184.50 34.32ZM186.07 30.21L186.07 30.21Q187.37 30.21 188.30 29.49Q189.22 28.77 189.70 27.48Q190.18 26.19 190.18 24.46L190.18 24.46Q190.18 22.72 189.71 21.45Q189.24 20.17 188.31 19.47Q187.39 18.76 186.07 18.76L186.07 18.76Q184.72 18.76 183.81 19.49Q182.90 20.23 182.43 21.51Q181.97 22.79 181.97 24.46L181.97 24.46Q181.97 26.14 182.44 27.44Q182.91 28.74 183.83 29.47Q184.74 30.21 186.07 30.21ZM197.16 40.77L197.16 40.77L198.34 36.91L198.98 37.06Q200.00 37.33 200.80 37.21Q201.61 37.09 202.09 36.56Q202.58 36.03 202.68 35.08L202.68 35.08L202.82 34.05L195.64 14.89L201.09 14.89L204.31 24.81Q204.89 26.69 205.26 28.57Q205.62 30.45 206.10 32.50L206.10 32.50L204.91 32.50Q205.37 30.45 205.83 28.56Q206.29 26.67 206.90 24.81L206.90 24.81L210.25 14.89L215.64 14.89L207.52 36.26Q206.94 37.79 206.03 38.92Q205.13 40.05 203.78 40.67Q202.43 41.28 200.51 41.28L200.51 41.28Q199.49 41.28 198.60 41.14Q197.71 40.99 197.16 40.77ZM219.75 34.32L219.75 34.32Q218.51 34.32 217.65 33.48Q216.80 32.63 216.80 31.39L216.80 31.39Q216.80 30.14 217.65 29.30Q218.51 28.46 219.75 28.46L219.75 28.46Q221.00 28.46 221.86 29.30Q222.71 30.14 222.71 31.39L222.71 31.39Q222.71 32.63 221.86 33.48Q221.00 34.32 219.75 34.32ZM230.84 34.38L230.84 34.38Q229.03 34.38 227.59 33.74Q226.14 33.09 225.31 31.82Q224.49 30.55 224.49 28.65L224.49 28.65Q224.49 27.06 225.08 25.98Q225.67 24.91 226.68 24.26Q227.70 23.61 228.99 23.27Q230.28 22.93 231.70 22.79L231.70 22.79Q233.36 22.62 234.37 22.47Q235.39 22.33 235.86 22.01Q236.33 21.70 236.33 21.08L236.33 21.08L236.33 20.99Q236.33 20.17 235.99 19.61Q235.65 19.05 234.98 18.75Q234.31 18.45 233.34 18.45L233.34 18.45Q232.35 18.45 231.61 18.75Q230.88 19.05 230.42 19.54Q229.95 20.04 229.73 20.65L229.73 20.65L225.03 19.87Q225.53 18.21 226.67 17.05Q227.82 15.88 229.52 15.27Q231.22 14.65 233.34 14.65L233.34 14.65Q234.89 14.65 236.35 15.02Q237.80 15.39 238.95 16.16Q240.11 16.93 240.78 18.16Q241.46 19.39 241.46 21.13L241.46 21.13L241.46 34L236.60 34L236.60 31.35L236.43 31.35Q235.97 32.24 235.20 32.91Q234.43 33.59 233.35 33.98Q232.26 34.38 230.84 34.38ZM232.30 30.77L232.30 30.77Q233.51 30.77 234.42 30.29Q235.34 29.81 235.85 28.99Q236.36 28.17 236.36 27.16L236.36 27.16L236.36 25.10Q236.14 25.27 235.68 25.40Q235.22 25.54 234.65 25.64Q234.09 25.75 233.54 25.83Q233.00 25.92 232.57 25.97L232.57 25.97Q231.63 26.10 230.91 26.41Q230.19 26.72 229.80 27.22Q229.41 27.73 229.41 28.51L229.41 28.51Q229.41 29.25 229.78 29.75Q230.16 30.26 230.80 30.51Q231.44 30.77 232.30 30.77ZM248.68 34L243.56 34L243.56 14.89L248.68 14.89L248.68 34ZM246.12 12.40L246.12 12.40Q244.96 12.40 244.14 11.63Q243.32 10.86 243.32 9.77L243.32 9.77Q243.32 8.67 244.14 7.90Q244.96 7.13 246.12 7.13L246.12 7.13Q247.28 7.13 248.11 7.90Q248.94 8.66 248.94 9.77L248.94 9.77Q248.94 10.86 248.11 11.63Q247.28 12.40 246.12 12.40Z"></path></g>
        
      </svg>